HIERARCHY
ROOT Hips
{
	OFFSET 0.000000 0.000000 0.000000
	CHANNELS 6 Xposition Yposition Zposition Xrotation Yrotation Zrotation
	JOINT Chest
	{
		OFFSET 0.000000 0.009282 11.569106
		CHANNELS 3 Xrotation Yrotation Zrotation
		JOINT Chest2
		{
			OFFSET 0.000000 -0.016863 9.269641
			CHANNELS 3 Xrotation Yrotation Zrotation
			JOINT Chest3
			{
				OFFSET 0.000000 0.000000 8.374491
				CHANNELS 3 Xrotation Yrotation Zrotation
				JOINT Chest4
				{
					OFFSET 0.000000 0.000000 8.374493
					CHANNELS 3 Xrotation Yrotation Zrotation
					JOINT Neck
					{
						OFFSET 0.000000 -0.000001 12.152554
						CHANNELS 3 Xrotation Yrotation Zrotation
						JOINT Head
						{
							OFFSET 0.000000 -0.040100 7.802319
							CHANNELS 3 Xrotation Yrotation Zrotation
							End Site
							{
								OFFSET 0.000000 -0.020946 14.853096
							}
						}
					}
					JOINT RightCollar
					{
						OFFSET -2.894404 0.000000 6.791374
						CHANNELS 3 Xrotation Yrotation Zrotation
						JOINT RightShoulder
						{
							OFFSET -13.574684 0.000000 0.000000
							CHANNELS 3 Xrotation Yrotation Zrotation
							JOINT RightElbow
							{
								OFFSET -23.923903 0.000000 0.000000
								CHANNELS 3 Xrotation Yrotation Zrotation
								JOINT RightWrist
								{
									OFFSET -19.846718 -0.012765 0.000000
									CHANNELS 3 Xrotation Yrotation Zrotation
									End Site
									{
										OFFSET -14.973145 0.000000 0.000000
									}
								}
							}
						}
					}
					JOINT LeftCollar
					{
						OFFSET 2.894404 0.000000 6.791374
						CHANNELS 3 Xrotation Yrotation Zrotation
						JOINT LeftShoulder
						{
							OFFSET 13.574684 0.000000 0.000000
							CHANNELS 3 Xrotation Yrotation Zrotation
							JOINT LeftElbow
							{
								OFFSET 23.923903 0.000000 0.000000
								CHANNELS 3 Xrotation Yrotation Zrotation
								JOINT LeftWrist
								{
									OFFSET 19.846718 -0.012765 0.000000
									CHANNELS 3 Xrotation Yrotation Zrotation
									End Site
									{
										OFFSET 14.973145 0.000000 0.000000
									}
								}
							}
						}
					}
				}
			}
		}
	}
	JOINT RightHip
	{
		OFFSET -9.469263 -0.004642 0.045487
		CHANNELS 3 Xrotation Yrotation Zrotation
		JOINT RightKnee
		{
			OFFSET 0.000000 -0.002666 -40.478676
			CHANNELS 3 Xrotation Yrotation Zrotation
			JOINT RightAnkle
			{
				OFFSET 0.000000 -0.049110 -35.224068
				CHANNELS 3 Xrotation Yrotation Zrotation
				JOINT RightToe
				{
					OFFSET 0.000000 -12.539530 -6.151390
					CHANNELS 3 Xrotation Yrotation Zrotation
					End Site
					{
						OFFSET 0.000000 -5.044995 -1.291870
					}
				}
			}
		}
	}
	JOINT LeftHip
	{
		OFFSET 9.469263 -0.004642 0.045487
		CHANNELS 3 Xrotation Yrotation Zrotation
		JOINT LeftKnee
		{
			OFFSET 0.000000 -0.002666 -40.478676
			CHANNELS 3 Xrotation Yrotation Zrotation
			JOINT LeftAnkle
			{
				OFFSET 0.000000 -0.049110 -35.224068
				CHANNELS 3 Xrotation Yrotation Zrotation
				JOINT LeftToe
				{
					OFFSET 0.000000 -12.539530 -6.151390
					CHANNELS 3 Xrotation Yrotation Zrotation
					End Site
					{
						OFFSET 0.000000 -5.044995 -1.291870
					}
				}
			}
		}
	}
}
MOTION
Frames: 5
Frame Time: 0.016667
-12.191404 -6.324852 83.016136 0.979272 2.089807 -109.080901 4.396707 0.664399 2.388999 1.955722 0.275331 1.078992 1.955722 0.275331 1.078992 1.467282 0.203049 0.810133 14.606740 -2.261922 -4.568097 -9.075651 -2.373295 -9.163666 -1.651146 -7.801720 -2.443875 11.133160 -38.272412 7.206646 69.140407 -4.885865 86.458051 32.545206 -52.934683 -5.027328 5.990542 5.437703 -7.912203 12.476723 30.313684 -19.002558 72.795425 14.727121 -89.224025 21.874442 43.183909 22.407844 4.939299 0.319401 -0.362111 2.280321 -1.465580 -9.099335 -4.497799 0.924490 1.892678 0.028729 -0.021502 0.006373 6.773487 0.837363 3.367961 -0.121047 -0.734041 -0.128736 -4.690446 0.037141 1.270272 0.018858 0.004395 -0.009059 
-12.180429 -6.331537 83.016968 0.988358 2.111049 -109.070273 4.390362 0.664021 2.386432 1.952823 0.274578 1.077846 1.952824 0.274578 1.077851 1.465104 0.202493 0.809272 14.612249 -2.256974 -4.570889 -9.064951 -2.363633 -9.166730 -1.637021 -7.795892 -2.455810 11.122723 -38.291034 7.198096 69.132825 -4.886658 86.449978 32.583038 -52.939096 -4.990838 5.983742 5.445776 -7.912816 12.482867 30.318793 -18.978893 72.805869 14.728041 -89.221156 21.893803 43.189711 22.407723 4.947089 0.320682 -0.356517 2.295941 -1.470375 -9.109134 -4.498443 0.929375 1.899784 0.028216 -0.021112 0.006934 6.781700 0.839538 3.356183 -0.111708 -0.739849 -0.122522 -4.689905 0.039972 1.263782 0.020094 0.002341 -0.009765 
-12.170499 -6.338941 83.017952 0.996563 2.135575 -109.061708 4.385469 0.662048 2.383313 1.950665 0.273454 1.076173 1.950667 0.273454 1.076168 1.463484 0.201658 0.808011 14.617716 -2.249460 -4.577013 -9.054038 -2.348054 -9.174868 -1.619316 -7.786097 -2.460841 11.109190 -38.303571 7.183120 69.134806 -4.881838 86.447539 32.602603 -52.932402 -4.972868 5.982139 5.453619 -7.912269 12.483726 30.328133 -18.960233 72.813887 14.723016 -89.213711 21.907676 43.193426 22.394452 4.958734 0.321519 -0.350978 2.309629 -1.469736 -9.114424 -4.496822 0.930720 1.887446 0.027190 -0.020033 0.007545 6.793697 0.842338 3.345956 -0.103310 -0.741961 -0.109055 -4.688189 0.040127 1.262060 0.020263 0.001687 -0.010812 
-12.160034 -6.345837 83.018715 1.004523 2.156683 -109.055479 4.378037 0.658659 2.382147 1.947496 0.271909 1.075612 1.947495 0.271909 1.075609 1.461102 0.200507 0.807583 14.624603 -2.241818 -4.584623 -9.040408 -2.331782 -9.185641 -1.605374 -7.772725 -2.470982 11.102724 -38.317798 7.172249 69.143931 -4.878538 86.438598 32.628633 -52.918619 -4.945144 5.990952 5.452646 -7.915973 12.485029 30.345977 -18.943029 72.820164 14.727623 -89.205522 21.926587 43.178393 22.375379 4.965199 0.323772 -0.350365 2.326120 -1.470483 -9.113292 -4.496125 0.930789 1.891286 0.026469 -0.018628 0.008009 6.803860 0.844896 3.343617 -0.098200 -0.744653 -0.105621 -4.684434 0.040526 1.254811 0.020215 0.000962 -0.010880 
-12.149129 -6.352673 83.019310 1.012629 2.175910 -109.051955 4.371049 0.657201 2.382946 1.944262 0.271011 1.075700 1.944262 0.271011 1.075704 1.458678 0.199839 0.807644 14.633513 -2.235609 -4.589359 -9.023250 -2.319332 -9.191695 -1.585643 -7.765296 -2.480446 11.096929 -38.326889 7.167640 69.154702 -4.873597 86.427793 32.644554 -52.903855 -4.922069 5.995548 5.451061 -7.923766 12.496840 30.356861 -18.928638 72.820752 14.731951 -89.193794 21.963682 43.167923 22.349953 4.967310 0.324638 -0.351951 2.346970 -1.470634 -9.106642 -4.497353 0.932055 1.901814 0.025981 -0.018251 0.008191 6.809641 0.844606 3.354373 -0.087086 -0.743224 -0.112461 -4.683975 0.039369 1.240541 0.020345 0.000171 -0.010915 
